# xmcd CD database file
#
# Track frame offsets:
#	150
#	1750
#	30021
#	58647
#	76875
#	108635
#	126565
#	163764
#	189760
#	203123
#	230361
#	253182
#	266285
#
# Disc length: 3844 seconds
#
# Revision: 1
# Processed by: cddbd v1.4PL0 Copyright (c) Steve Scherf et al.
# Submitted via: CDex 1.51
#
DISCID=9d0f020d
DTITLE=YAKOU TRIBE - ROAD WORKS
DYEAR=1999
DGENRE=Jazz
TTITLE0=prologue
TTITLE1=prairie
TTITLE2=riverwide
TTITLE3=december
TTITLE4=boogaloo
TTITLE5=roach motel
TTITLE6=mr.loso
TTITLE7=kajphoon
TTITLE8=kaiku
TTITLE9=detour
TTITLE10=shaving in rental car
TTITLE11=big chief
TTITLE12=serafina
EXTD=YEAR: 1999
EXTT0=
EXTT1=
EXTT2=
EXTT3=
EXTT4=
EXTT5=
EXTT6=
EXTT7=
EXTT8=
EXTT9=
EXTT10=
EXTT11=
EXTT12=
PLAYORDER=
